<svg width="16" height="16" viewBox="0 0 16 16" fill="none" xmlns="http://www.w3.org/2000/svg">
<g clip-path="url(#clip0)">
<path d="M7.97344 14.6452H1.99334C1.62656 14.6452 1.32891 14.3475 1.32891 13.9807V2.02057C1.32891 1.65378 1.62659 1.35613 1.99334 1.35613H7.97344C8.34087 1.35613 8.63787 1.05913 8.63787 0.691691C8.63787 0.324254 8.34087 0.0271912 7.97344 0.0271912H1.99334C0.894344 0.0271912 0 0.921566 0 2.02057V13.9807C0 15.0797 0.894344 15.974 1.99334 15.974H7.97344C8.34087 15.974 8.63787 15.677 8.63787 15.3096C8.63787 14.9422 8.34087 14.6452 7.97344 14.6452Z" fill="white"/>
<path d="M15.802 7.52692L11.7621 3.5402C11.5017 3.28239 11.0804 3.28573 10.8226 3.54686C10.5648 3.80798 10.5675 4.22857 10.8293 4.48639L13.7163 7.33554H5.98008C5.61264 7.33554 5.31564 7.63254 5.31564 7.99998C5.31564 8.36742 5.61264 8.66445 5.98008 8.66445H13.7163L10.8293 11.5136C10.5675 11.7714 10.5655 12.192 10.8226 12.4531C10.9528 12.5847 11.1243 12.6511 11.2957 12.6511C11.4645 12.6511 11.6332 12.5874 11.7621 12.4598L15.802 8.47304C15.9283 8.34814 16 8.17801 16 7.99995C16 7.82195 15.9289 7.65251 15.802 7.52692Z" fill="white"/>
</g>
<defs>
<clipPath id="clip0">
<rect width="16" height="16" fill="white"/>
</clipPath>
</defs>
</svg>
