<svg width="24" height="23" viewBox="0 0 24 23" fill="none" xmlns="http://www.w3.org/2000/svg">
<path d="M7.55554 12.6875C8.10783 12.6875 8.55554 12.2678 8.55554 11.75C8.55554 11.2322 8.10783 10.8125 7.55554 10.8125C7.00326 10.8125 6.55554 11.2322 6.55554 11.75C6.55554 12.2678 7.00326 12.6875 7.55554 12.6875Z" fill="white"/>
<path d="M7.55554 16.0208C8.10783 16.0208 8.55554 15.6011 8.55554 15.0833C8.55554 14.5655 8.10783 14.1458 7.55554 14.1458C7.00326 14.1458 6.55554 14.5655 6.55554 15.0833C6.55554 15.6011 7.00326 16.0208 7.55554 16.0208Z" fill="white"/>
<path d="M7.55554 9.35419C8.10783 9.35419 8.55554 8.93445 8.55554 8.41669C8.55554 7.89892 8.10783 7.47919 7.55554 7.47919C7.00326 7.47919 6.55554 7.89892 6.55554 8.41669C6.55554 8.93445 7.00326 9.35419 7.55554 9.35419Z" fill="white"/>
<path d="M16.4445 7.58331H11.1111C10.6202 7.58331 10.2222 7.95641 10.2222 8.41665C10.2222 8.87688 10.6202 9.24998 11.1111 9.24998H16.4445C16.9354 9.24998 17.3333 8.87688 17.3333 8.41665C17.3333 7.95641 16.9354 7.58331 16.4445 7.58331Z" fill="white"/>
<path d="M16.4445 10.9167H11.1111C10.6202 10.9167 10.2222 11.2898 10.2222 11.75C10.2222 12.2103 10.6202 12.5834 11.1111 12.5834H16.4445C16.9354 12.5834 17.3333 12.2103 17.3333 11.75C17.3333 11.2898 16.9354 10.9167 16.4445 10.9167Z" fill="white"/>
<path d="M16.4445 14.25H11.1111C10.6202 14.25 10.2222 14.6231 10.2222 15.0833C10.2222 15.5436 10.6202 15.9167 11.1111 15.9167H16.4445C16.9354 15.9167 17.3333 15.5436 17.3333 15.0833C17.3333 14.6231 16.9354 14.25 16.4445 14.25Z" fill="white"/>
<path d="M18 4.25H6C4.89543 4.25 4 5.08947 4 6.125V17.375C4 18.4105 4.89543 19.25 6 19.25H18C19.1046 19.25 20 18.4105 20 17.375V6.125C20 5.08947 19.1046 4.25 18 4.25Z" stroke="white" stroke-width="2" stroke-linecap="round" stroke-linejoin="round"/>
</svg>
